<svg xmlns="http://www.w3.org/2000/svg" xmlns:xlink="http://www.w3.org/1999/xlink" width="500" zoomAndPan="magnify" viewBox="0 0 375 374.999991" height="500" preserveAspectRatio="xMidYMid meet" version="1.2"><defs><clipPath id="ee44ebf4cc"><path d="M 37.5 136.46875 L 337.5 136.46875 L 337.5 210.042969 L 37.5 210.042969 Z M 37.5 136.46875 "/></clipPath></defs><g id="3d71f8a71e"><g clip-rule="nonzero" clip-path="url(#ee44ebf4cc)"><path style=" stroke:none;fill-rule:nonzero;fill:#ff1616;fill-opacity:1;" d="M 37.5 136.46875 L 337.546875 136.46875 L 337.546875 210.042969 L 37.5 210.042969 Z M 37.5 136.46875 "/></g><g style="fill:#ffffff;fill-opacity:1;"><g transform="translate(57.896031, 187.539244)"><path style="stroke:none" d="M 24.765625 0 L 2.640625 0 L 2.640625 -31.015625 L 24.765625 -31.015625 L 24.765625 -24.859375 L 9.6875 -24.859375 L 9.6875 -18.609375 L 22.578125 -18.609375 L 22.578125 -12.453125 L 9.6875 -12.453125 L 9.6875 -6.15625 L 24.765625 -6.15625 Z M 24.765625 0 "/></g></g><g style="fill:#ffffff;fill-opacity:1;"><g transform="translate(86.051298, 187.539244)"><path style="stroke:none" d="M 24.765625 0 L 6.421875 0.4375 C 5.222656 0.46875 4.289062 0.160156 3.625 -0.484375 C 2.96875 -1.128906 2.640625 -2.050781 2.640625 -3.25 L 2.640625 -31.015625 L 9.6875 -31.015625 L 9.6875 -5.71875 L 24.765625 -6.15625 Z M 24.765625 0 "/></g></g><g style="fill:#ffffff;fill-opacity:1;"><g transform="translate(113.326721, 187.539244)"><path style="stroke:none" d="M 24.765625 0 L 2.640625 0 L 2.640625 -31.015625 L 24.765625 -31.015625 L 24.765625 -24.859375 L 9.6875 -24.859375 L 9.6875 -18.609375 L 22.578125 -18.609375 L 22.578125 -12.453125 L 9.6875 -12.453125 L 9.6875 -6.15625 L 24.765625 -6.15625 Z M 24.765625 0 "/></g></g><g style="fill:#ffffff;fill-opacity:1;"><g transform="translate(141.481989, 187.539244)"><path style="stroke:none" d="M 2.203125 -15.53125 C 2.203125 -18.550781 2.847656 -21.253906 4.140625 -23.640625 C 5.429688 -26.035156 7.265625 -27.9375 9.640625 -29.34375 C 12.015625 -30.75 14.84375 -31.453125 18.125 -31.453125 C 21.03125 -31.453125 23.566406 -30.953125 25.734375 -29.953125 C 27.910156 -28.960938 29.664062 -27.535156 31 -25.671875 C 32.332031 -23.804688 33.144531 -21.597656 33.4375 -19.046875 L 26.40625 -19.046875 C 26.050781 -21.097656 25.125 -22.648438 23.625 -23.703125 C 22.132812 -24.765625 20.332031 -25.296875 18.21875 -25.296875 C 15.519531 -25.296875 13.347656 -24.46875 11.703125 -22.8125 C 10.054688 -21.15625 9.234375 -18.726562 9.234375 -15.53125 C 9.234375 -12.332031 10.054688 -9.894531 11.703125 -8.21875 C 13.347656 -6.550781 15.519531 -5.71875 18.21875 -5.71875 C 20.332031 -5.71875 22.132812 -6.253906 23.625 -7.328125 C 25.125 -8.398438 26.050781 -9.960938 26.40625 -12.015625 L 33.4375 -12.015625 C 33.144531 -9.460938 32.332031 -7.253906 31 -5.390625 C 29.664062 -3.523438 27.910156 -2.085938 25.734375 -1.078125 C 23.566406 -0.0664062 21.03125 0.4375 18.125 0.4375 C 14.84375 0.4375 12.015625 -0.265625 9.640625 -1.671875 C 7.265625 -3.078125 5.429688 -4.984375 4.140625 -7.390625 C 2.847656 -9.796875 2.203125 -12.507812 2.203125 -15.53125 Z M 2.203125 -15.53125 "/></g></g><g style="fill:#ffffff;fill-opacity:1;"><g transform="translate(178.743629, 187.539244)"><path style="stroke:none" d="M 1.3125 -31.015625 L 28.640625 -31.015625 L 28.640625 -24.859375 L 18.53125 -24.859375 L 18.53125 0 L 11.484375 0 L 11.484375 -24.859375 L 1.3125 -24.859375 Z M 1.3125 -31.015625 "/></g></g><g style="fill:#ffffff;fill-opacity:1;"><g transform="translate(210.330282, 187.539244)"><path style="stroke:none" d="M 9.6875 0 L 2.640625 0 L 2.640625 -31.015625 L 14.65625 -31.015625 C 16.5 -31.015625 18.25 -30.882812 19.90625 -30.625 C 21.5625 -30.363281 23.035156 -29.914062 24.328125 -29.28125 C 25.617188 -28.65625 26.628906 -27.773438 27.359375 -26.640625 C 28.097656 -25.515625 28.46875 -24.085938 28.46875 -22.359375 C 28.46875 -20.648438 28.070312 -19.316406 27.28125 -18.359375 C 26.488281 -17.410156 25.488281 -16.71875 24.28125 -16.28125 C 23.082031 -15.84375 21.851562 -15.550781 20.59375 -15.40625 L 20.59375 -13.640625 L 25.125 -13.640625 C 27.613281 -13.640625 28.859375 -12.394531 28.859375 -9.90625 L 28.859375 0 L 21.828125 0 L 21.828125 -10.90625 L 9.6875 -10.90625 Z M 9.6875 -24.859375 L 9.6875 -17.078125 L 14.65625 -17.078125 C 16.0625 -17.078125 17.269531 -17.125 18.28125 -17.21875 C 19.289062 -17.320312 20.066406 -17.644531 20.609375 -18.1875 C 21.148438 -18.738281 21.421875 -19.65625 21.421875 -20.9375 C 21.421875 -22.257812 21.148438 -23.191406 20.609375 -23.734375 C 20.066406 -24.273438 19.289062 -24.597656 18.28125 -24.703125 C 17.269531 -24.804688 16.0625 -24.859375 14.65625 -24.859375 Z M 9.6875 -24.859375 "/></g></g><g style="fill:#ffffff;fill-opacity:1;"><g transform="translate(243.456657, 187.539244)"><path style="stroke:none" d="M 2.203125 -15.53125 C 2.203125 -18.550781 2.835938 -21.253906 4.109375 -23.640625 C 5.390625 -26.035156 7.207031 -27.9375 9.5625 -29.34375 C 11.925781 -30.75 14.753906 -31.453125 18.046875 -31.453125 C 21.328125 -31.453125 24.140625 -30.75 26.484375 -29.34375 C 28.835938 -27.9375 30.648438 -26.035156 31.921875 -23.640625 C 33.191406 -21.253906 33.828125 -18.550781 33.828125 -15.53125 C 33.828125 -12.507812 33.191406 -9.796875 31.921875 -7.390625 C 30.648438 -4.984375 28.835938 -3.078125 26.484375 -1.671875 C 24.140625 -0.265625 21.328125 0.4375 18.046875 0.4375 C 14.753906 0.4375 11.925781 -0.265625 9.5625 -1.671875 C 7.207031 -3.078125 5.390625 -4.984375 4.109375 -7.390625 C 2.835938 -9.796875 2.203125 -12.507812 2.203125 -15.53125 Z M 9.234375 -15.53125 C 9.234375 -12.539062 9.96875 -10.15625 11.4375 -8.375 C 12.90625 -6.601562 15.109375 -5.71875 18.046875 -5.71875 C 20.972656 -5.71875 23.160156 -6.601562 24.609375 -8.375 C 26.066406 -10.15625 26.796875 -12.539062 26.796875 -15.53125 C 26.796875 -18.488281 26.066406 -20.851562 24.609375 -22.625 C 23.160156 -24.40625 20.972656 -25.296875 18.046875 -25.296875 C 15.109375 -25.296875 12.90625 -24.40625 11.4375 -22.625 C 9.96875 -20.851562 9.234375 -18.488281 9.234375 -15.53125 Z M 9.234375 -15.53125 "/></g></g><g style="fill:#ffffff;fill-opacity:1;"><g transform="translate(281.114217, 187.539244)"><path style="stroke:none" d="M 26.3125 -6.15625 L 26.3125 -31.015625 L 33.359375 -31.015625 L 33.359375 0 L 19.484375 0 L 11.65625 -24.859375 L 9.6875 -24.859375 L 9.6875 0 L 2.640625 0 L 2.640625 -31.015625 L 16.5 -31.015625 L 24.328125 -6.15625 Z M 26.3125 -6.15625 "/></g></g><g style="fill:#000000;fill-opacity:1;"><g transform="translate(116.75737, 234.230464)"><path style="stroke:none" d="M 4.015625 -10.03125 L 0.0625 -10.03125 L 0.0625 -11.90625 L 10.171875 -11.90625 L 10.171875 -10.03125 L 6.21875 -10.03125 L 6.21875 0 L 4.015625 0 Z M 4.015625 -10.03125 "/></g></g><g style="fill:#000000;fill-opacity:1;"><g transform="translate(128.856658, 234.230464)"><path style="stroke:none" d="M 10.515625 -1.859375 L 10.515625 0 L 1.59375 0 L 1.59375 -11.90625 L 10.28125 -11.90625 L 10.28125 -10.046875 L 3.8125 -10.046875 L 3.8125 -6.953125 L 9.546875 -6.953125 L 9.546875 -5.140625 L 3.8125 -5.140625 L 3.8125 -1.859375 Z M 10.515625 -1.859375 "/></g></g><g style="fill:#000000;fill-opacity:1;"><g transform="translate(142.11141, 234.230464)"><path style="stroke:none" d="M 7.109375 0.171875 C 5.898438 0.171875 4.8125 -0.0859375 3.84375 -0.609375 C 2.875 -1.140625 2.113281 -1.867188 1.5625 -2.796875 C 1.019531 -3.734375 0.75 -4.785156 0.75 -5.953125 C 0.75 -7.117188 1.023438 -8.164062 1.578125 -9.09375 C 2.128906 -10.019531 2.890625 -10.742188 3.859375 -11.265625 C 4.835938 -11.796875 5.925781 -12.0625 7.125 -12.0625 C 8.09375 -12.0625 8.976562 -11.890625 9.78125 -11.546875 C 10.59375 -11.210938 11.273438 -10.722656 11.828125 -10.078125 L 10.40625 -8.734375 C 9.539062 -9.660156 8.476562 -10.125 7.21875 -10.125 C 6.40625 -10.125 5.675781 -9.945312 5.03125 -9.59375 C 4.382812 -9.238281 3.878906 -8.742188 3.515625 -8.109375 C 3.148438 -7.472656 2.96875 -6.753906 2.96875 -5.953125 C 2.96875 -5.148438 3.148438 -4.429688 3.515625 -3.796875 C 3.878906 -3.160156 4.382812 -2.660156 5.03125 -2.296875 C 5.675781 -1.941406 6.40625 -1.765625 7.21875 -1.765625 C 8.476562 -1.765625 9.539062 -2.234375 10.40625 -3.171875 L 11.828125 -1.8125 C 11.273438 -1.164062 10.59375 -0.671875 9.78125 -0.328125 C 8.96875 0.00390625 8.078125 0.171875 7.109375 0.171875 Z M 7.109375 0.171875 "/></g></g><g style="fill:#000000;fill-opacity:1;"><g transform="translate(156.33471, 234.230464)"><path style="stroke:none" d="M 12.171875 -11.90625 L 12.171875 0 L 9.96875 0 L 9.96875 -5.09375 L 3.8125 -5.09375 L 3.8125 0 L 1.59375 0 L 1.59375 -11.90625 L 3.8125 -11.90625 L 3.8125 -6.984375 L 9.96875 -6.984375 L 9.96875 -11.90625 Z M 12.171875 -11.90625 "/></g></g><g style="fill:#000000;fill-opacity:1;"><g transform="translate(171.968357, 234.230464)"><path style="stroke:none" d="M 12.171875 -11.90625 L 12.171875 0 L 10.359375 0 L 3.796875 -8.0625 L 3.796875 0 L 1.59375 0 L 1.59375 -11.90625 L 3.421875 -11.90625 L 9.984375 -3.84375 L 9.984375 -11.90625 Z M 12.171875 -11.90625 "/></g></g><g style="fill:#000000;fill-opacity:1;"><g transform="translate(187.602004, 234.230464)"><path style="stroke:none" d="M 7.15625 0.171875 C 5.945312 0.171875 4.851562 -0.0859375 3.875 -0.609375 C 2.894531 -1.140625 2.128906 -1.875 1.578125 -2.8125 C 1.023438 -3.75 0.75 -4.796875 0.75 -5.953125 C 0.75 -7.109375 1.023438 -8.148438 1.578125 -9.078125 C 2.128906 -10.015625 2.894531 -10.742188 3.875 -11.265625 C 4.851562 -11.796875 5.945312 -12.0625 7.15625 -12.0625 C 8.363281 -12.0625 9.457031 -11.796875 10.4375 -11.265625 C 11.414062 -10.742188 12.179688 -10.019531 12.734375 -9.09375 C 13.285156 -8.164062 13.5625 -7.117188 13.5625 -5.953125 C 13.5625 -4.785156 13.285156 -3.734375 12.734375 -2.796875 C 12.179688 -1.867188 11.414062 -1.140625 10.4375 -0.609375 C 9.457031 -0.0859375 8.363281 0.171875 7.15625 0.171875 Z M 7.15625 -1.765625 C 7.945312 -1.765625 8.660156 -1.941406 9.296875 -2.296875 C 9.929688 -2.660156 10.429688 -3.160156 10.796875 -3.796875 C 11.160156 -4.441406 11.34375 -5.160156 11.34375 -5.953125 C 11.34375 -6.742188 11.160156 -7.457031 10.796875 -8.09375 C 10.429688 -8.738281 9.929688 -9.238281 9.296875 -9.59375 C 8.660156 -9.945312 7.945312 -10.125 7.15625 -10.125 C 6.363281 -10.125 5.648438 -9.945312 5.015625 -9.59375 C 4.378906 -9.238281 3.878906 -8.738281 3.515625 -8.09375 C 3.148438 -7.457031 2.96875 -6.742188 2.96875 -5.953125 C 2.96875 -5.160156 3.148438 -4.441406 3.515625 -3.796875 C 3.878906 -3.160156 4.378906 -2.660156 5.015625 -2.296875 C 5.648438 -1.941406 6.363281 -1.765625 7.15625 -1.765625 Z M 7.15625 -1.765625 "/></g></g><g style="fill:#000000;fill-opacity:1;"><g transform="translate(203.779406, 234.230464)"><path style="stroke:none" d="M 1.59375 -11.90625 L 3.8125 -11.90625 L 3.8125 -1.875 L 10.03125 -1.875 L 10.03125 0 L 1.59375 0 Z M 1.59375 -11.90625 "/></g></g><g style="fill:#000000;fill-opacity:1;"><g transform="translate(215.82771, 234.230464)"><path style="stroke:none" d="M 7.15625 0.171875 C 5.945312 0.171875 4.851562 -0.0859375 3.875 -0.609375 C 2.894531 -1.140625 2.128906 -1.875 1.578125 -2.8125 C 1.023438 -3.75 0.75 -4.796875 0.75 -5.953125 C 0.75 -7.109375 1.023438 -8.148438 1.578125 -9.078125 C 2.128906 -10.015625 2.894531 -10.742188 3.875 -11.265625 C 4.851562 -11.796875 5.945312 -12.0625 7.15625 -12.0625 C 8.363281 -12.0625 9.457031 -11.796875 10.4375 -11.265625 C 11.414062 -10.742188 12.179688 -10.019531 12.734375 -9.09375 C 13.285156 -8.164062 13.5625 -7.117188 13.5625 -5.953125 C 13.5625 -4.785156 13.285156 -3.734375 12.734375 -2.796875 C 12.179688 -1.867188 11.414062 -1.140625 10.4375 -0.609375 C 9.457031 -0.0859375 8.363281 0.171875 7.15625 0.171875 Z M 7.15625 -1.765625 C 7.945312 -1.765625 8.660156 -1.941406 9.296875 -2.296875 C 9.929688 -2.660156 10.429688 -3.160156 10.796875 -3.796875 C 11.160156 -4.441406 11.34375 -5.160156 11.34375 -5.953125 C 11.34375 -6.742188 11.160156 -7.457031 10.796875 -8.09375 C 10.429688 -8.738281 9.929688 -9.238281 9.296875 -9.59375 C 8.660156 -9.945312 7.945312 -10.125 7.15625 -10.125 C 6.363281 -10.125 5.648438 -9.945312 5.015625 -9.59375 C 4.378906 -9.238281 3.878906 -8.738281 3.515625 -8.09375 C 3.148438 -7.457031 2.96875 -6.742188 2.96875 -5.953125 C 2.96875 -5.160156 3.148438 -4.441406 3.515625 -3.796875 C 3.878906 -3.160156 4.378906 -2.660156 5.015625 -2.296875 C 5.648438 -1.941406 6.363281 -1.765625 7.15625 -1.765625 Z M 7.15625 -1.765625 "/></g></g><g style="fill:#000000;fill-opacity:1;"><g transform="translate(232.005112, 234.230464)"><path style="stroke:none" d="M 9.71875 -6.09375 L 11.8125 -6.09375 L 11.8125 -1.34375 C 11.195312 -0.851562 10.484375 -0.476562 9.671875 -0.21875 C 8.859375 0.0390625 8.019531 0.171875 7.15625 0.171875 C 5.945312 0.171875 4.851562 -0.0859375 3.875 -0.609375 C 2.894531 -1.140625 2.128906 -1.867188 1.578125 -2.796875 C 1.023438 -3.734375 0.75 -4.785156 0.75 -5.953125 C 0.75 -7.117188 1.023438 -8.164062 1.578125 -9.09375 C 2.128906 -10.019531 2.894531 -10.742188 3.875 -11.265625 C 4.863281 -11.796875 5.96875 -12.0625 7.1875 -12.0625 C 8.1875 -12.0625 9.09375 -11.894531 9.90625 -11.5625 C 10.726562 -11.238281 11.414062 -10.757812 11.96875 -10.125 L 10.578125 -8.765625 C 9.671875 -9.671875 8.578125 -10.125 7.296875 -10.125 C 6.453125 -10.125 5.703125 -9.945312 5.046875 -9.59375 C 4.398438 -9.25 3.890625 -8.757812 3.515625 -8.125 C 3.148438 -7.488281 2.96875 -6.765625 2.96875 -5.953125 C 2.96875 -5.160156 3.148438 -4.445312 3.515625 -3.8125 C 3.890625 -3.175781 4.398438 -2.675781 5.046875 -2.3125 C 5.703125 -1.945312 6.445312 -1.765625 7.28125 -1.765625 C 8.207031 -1.765625 9.019531 -1.96875 9.71875 -2.375 Z M 9.71875 -6.09375 "/></g></g><g style="fill:#000000;fill-opacity:1;"><g transform="translate(246.99306, 234.230464)"><path style="stroke:none" d="M 6.734375 -4.203125 L 6.734375 0 L 4.515625 0 L 4.515625 -4.171875 L -0.15625 -11.90625 L 2.203125 -11.90625 L 5.6875 -6.109375 L 9.21875 -11.90625 L 11.390625 -11.90625 Z M 6.734375 -4.203125 "/></g></g></g></svg>